<svg id="Icon_awesome-facebook-square" data-name="Icon awesome-facebook-square" xmlns="http://www.w3.org/2000/svg" width="32.461" height="32.46" viewBox="0 0 32.461 32.46">
  <path id="Icon_awesome-facebook-square-2" data-name="Icon awesome-facebook-square" d="M28.983,2.25H3.478A3.478,3.478,0,0,0,0,5.728v25.5A3.478,3.478,0,0,0,3.478,34.71h9.945V23.674H8.858V18.48h4.565V14.521c0-4.5,2.681-6.99,6.787-6.99a27.655,27.655,0,0,1,4.023.351V12.3H21.967a2.6,2.6,0,0,0-2.929,2.806V18.48h4.984l-.8,5.194H19.038V34.71h9.945a3.478,3.478,0,0,0,3.478-3.478V5.728A3.478,3.478,0,0,0,28.983,2.25Z" transform="translate(0 -2.25)" fill="#fff"/>
</svg>
