<svg id="Icon_awesome-youtube-square" data-name="Icon awesome-youtube-square" xmlns="http://www.w3.org/2000/svg" width="32.461" height="32.46" viewBox="0 0 32.461 32.46">
  <path id="Icon_awesome-youtube-square-2" data-name="Icon awesome-youtube-square" d="M13.535,14.575l6.9,3.92-6.9,3.92ZM32.461,5.728v25.5a3.479,3.479,0,0,1-3.478,3.478H3.478A3.479,3.479,0,0,1,0,31.232V5.728A3.479,3.479,0,0,1,3.478,2.25h25.5A3.479,3.479,0,0,1,32.461,5.728ZM29.418,18.5a34.815,34.815,0,0,0-.551-6.391,3.307,3.307,0,0,0-2.333-2.348c-2.051-.558-10.3-.558-10.3-.558s-8.253,0-10.3.558a3.307,3.307,0,0,0-2.333,2.348A34.772,34.772,0,0,0,3.043,18.5a34.815,34.815,0,0,0,.551,6.391A3.26,3.26,0,0,0,5.927,27.2c2.051.551,10.3.551,10.3.551s8.253,0,10.3-.558a3.26,3.26,0,0,0,2.333-2.311,34.708,34.708,0,0,0,.551-6.383Z" transform="translate(0 -2.25)" fill="#fff"/>
</svg>
