<svg id="Icon_awesome-linkedin" data-name="Icon awesome-linkedin" xmlns="http://www.w3.org/2000/svg" width="32.461" height="32.46" viewBox="0 0 32.461 32.46">
  <path id="Icon_awesome-linkedin-2" data-name="Icon awesome-linkedin" d="M30.142,2.25H2.311A2.329,2.329,0,0,0,0,4.59V32.37a2.329,2.329,0,0,0,2.311,2.34H30.142a2.335,2.335,0,0,0,2.319-2.34V4.59A2.335,2.335,0,0,0,30.142,2.25ZM9.811,30.073H5V14.582H9.818V30.073ZM7.405,12.466a2.79,2.79,0,1,1,2.79-2.79,2.791,2.791,0,0,1-2.79,2.79Zm20.44,17.607H23.034V22.537c0-1.8-.036-4.108-2.5-4.108-2.507,0-2.891,1.956-2.891,3.978v7.666H12.832V14.582h4.616V16.7h.065a5.067,5.067,0,0,1,4.558-2.5c4.869,0,5.775,3.21,5.775,7.383Z" transform="translate(0 -2.25)" fill="#fff"/>
</svg>
