<svg xmlns="http://www.w3.org/2000/svg" xmlns:xlink="http://www.w3.org/1999/xlink" width="444" height="100" viewBox="0 0 444 100">
  <defs>
    <filter id="Retângulo_340" x="0" y="0" width="444" height="100" filterUnits="userSpaceOnUse">
      <feOffset input="SourceAlpha"/>
      <feGaussianBlur stdDeviation="5" result="blur"/>
      <feFlood flood-opacity="0.659"/>
      <feComposite operator="in" in2="blur"/>
      <feComposite in="SourceGraphic"/>
    </filter>
    <filter id="Subtração_26" x="53.354" y="42.795" width="47.976" height="42.976" filterUnits="userSpaceOnUse">
      <feOffset dx="2" dy="2" input="SourceAlpha"/>
      <feGaussianBlur stdDeviation="1" result="blur-2"/>
      <feFlood flood-color="#e2306c" flood-opacity="0.361"/>
      <feComposite operator="in" in2="blur-2"/>
      <feComposite in="SourceGraphic"/>
    </filter>
  </defs>
  <g id="Nav" transform="translate(15 15)">
    <g transform="matrix(1, 0, 0, 1, -15, -15)" filter="url(#Retângulo_340)">
      <rect id="Retângulo_340-2" data-name="Retângulo 340" width="414" height="70" transform="translate(15 15)" fill="#320995"/>
    </g>
    <g id="logo" transform="translate(-131.5 -326.101)">
      <g transform="matrix(1, 0, 0, 1, 116.5, 311.1)" filter="url(#Subtração_26)">
        <path id="Subtração_26-2" data-name="Subtração 26" d="M18.254,20.789a30.363,30.363,0,0,1-7.105-.817,22.269,22.269,0,0,1-5.8-2.227,12.482,12.482,0,0,1-3.912-3.3A6.715,6.715,0,0,1,0,10.394,6.716,6.716,0,0,1,1.434,6.349a12.5,12.5,0,0,1,3.912-3.3,22.26,22.26,0,0,1,5.8-2.227A30.387,30.387,0,0,1,18.254,0a30.384,30.384,0,0,1,7.1.817,22.254,22.254,0,0,1,5.8,2.227,12.5,12.5,0,0,1,3.912,3.3,6.718,6.718,0,0,1,1.435,4.046,6.717,6.717,0,0,1-1.435,4.046,12.486,12.486,0,0,1-3.912,3.3,22.26,22.26,0,0,1-5.8,2.227A30.36,30.36,0,0,1,18.254,20.789ZM17.011.879A21.6,21.6,0,0,0,6.343,3.443C3.494,5.1,1.925,7.3,1.925,9.634s1.569,4.537,4.419,6.19a21.6,21.6,0,0,0,10.667,2.564,21.6,21.6,0,0,0,10.668-2.564c2.849-1.654,4.419-3.852,4.419-6.19S30.528,5.1,27.679,3.443A21.6,21.6,0,0,0,17.011.879Z" transform="matrix(0.85, -0.53, 0.53, 0.85, 54.35, 63.14)" fill="#e2306c"/>
      </g>
      <text id="ban" transform="translate(151.5 364.611)" fill="none" stroke="#fff" stroke-linecap="round" stroke-linejoin="bevel" stroke-width="0.5" font-size="13" font-family="Montserrat-Bold, Montserrat" font-weight="700" letter-spacing="-0.06em"><tspan x="0" y="0">ban</tspan></text>
      <text id="gee" transform="translate(151.5 374.484)" fill="#fff" stroke="#fff" stroke-width="1" font-size="14" font-family="Montserrat-Light, Montserrat" font-weight="300" letter-spacing="-0.06em"><tspan x="0" y="0">gee</tspan></text>
      <text id="k" transform="translate(177.735 378.267) rotate(-15)" fill="#fff" stroke="#fff" stroke-width="1" font-size="42" font-family="Roboto-Regular, Roboto" letter-spacing="0.016em"><tspan x="0" y="0">k</tspan></text>
    </g>
    <g id="Grupo_438" data-name="Grupo 438" transform="translate(294 -205)">
      <line id="Linha_2" data-name="Linha 2" x2="24" transform="translate(76 232)" fill="none" stroke="#fff" stroke-width="1"/>
      <line id="Linha_3" data-name="Linha 3" x2="24" transform="translate(76 240)" fill="none" stroke="#fff" stroke-width="1"/>
      <line id="Linha_4" data-name="Linha 4" x2="24" transform="translate(76 248)" fill="none" stroke="#fff" stroke-width="1"/>
    </g>
  </g>
</svg>
