<svg xmlns="http://www.w3.org/2000/svg" width="39.099" height="46.528" viewBox="0 0 39.099 46.528">
  <path id="Icon_awesome-apple" data-name="Icon awesome-apple" d="M32.971,26.838c-.021-3.812,1.7-6.69,5.194-8.809-1.953-2.794-4.9-4.332-8.8-4.633-3.688-.291-7.718,2.15-9.193,2.15-1.558,0-5.131-2.046-7.936-2.046C6.441,13.593.281,18.122.281,27.336a25.89,25.89,0,0,0,1.5,8.435c1.33,3.812,6.129,13.161,11.136,13.005,2.618-.062,4.467-1.859,7.874-1.859,3.3,0,5.017,1.859,7.936,1.859,5.048-.073,9.39-8.57,10.658-12.392C32.608,33.195,32.971,27.035,32.971,26.838ZM27.092,9.781A9.784,9.784,0,0,0,29.585,2.25a11.015,11.015,0,0,0-7.053,3.625,9.937,9.937,0,0,0-2.659,7.469C22.584,13.552,25.056,12.16,27.092,9.781Z" transform="translate(-0.281 -2.25)" fill="#fff"/>
</svg>
