<svg id="Icon_awesome-instagram" data-name="Icon awesome-instagram" xmlns="http://www.w3.org/2000/svg" width="32.479" height="32.472" viewBox="0 0 32.479 32.472">
  <path id="Icon_awesome-instagram-2" data-name="Icon awesome-instagram" d="M16.238,10.148a8.325,8.325,0,1,0,8.325,8.325A8.312,8.312,0,0,0,16.238,10.148Zm0,13.738a5.412,5.412,0,1,1,5.413-5.412,5.422,5.422,0,0,1-5.413,5.412ZM26.846,9.807A1.942,1.942,0,1,1,24.9,7.866,1.937,1.937,0,0,1,26.846,9.807Zm5.514,1.971a9.609,9.609,0,0,0-2.623-6.8,9.673,9.673,0,0,0-6.8-2.623c-2.681-.152-10.716-.152-13.4,0a9.659,9.659,0,0,0-6.8,2.616,9.641,9.641,0,0,0-2.623,6.8c-.152,2.681-.152,10.716,0,13.4a9.609,9.609,0,0,0,2.623,6.8,9.685,9.685,0,0,0,6.8,2.623c2.681.152,10.716.152,13.4,0a9.61,9.61,0,0,0,6.8-2.623,9.673,9.673,0,0,0,2.623-6.8c.152-2.681.152-10.709,0-13.39ZM28.9,28.044a5.48,5.48,0,0,1-3.087,3.087c-2.137.848-7.209.652-9.572.652s-7.441.188-9.572-.652A5.48,5.48,0,0,1,3.58,28.044c-.848-2.137-.652-7.209-.652-9.571S2.739,11.032,3.58,8.9A5.48,5.48,0,0,1,6.666,5.815c2.137-.848,7.209-.652,9.572-.652s7.441-.188,9.572.652A5.48,5.48,0,0,1,28.9,8.9c.848,2.137.652,7.209.652,9.571S29.744,25.914,28.9,28.044Z" transform="translate(0.005 -2.237)" fill="#fff"/>
</svg>
